<svg width="128" height="128" viewBox="0 0 128 128" fill="none" xmlns="http://www.w3.org/2000/svg">
<g clip-path="url(#clip0)">
<path fill-rule="evenodd" clip-rule="evenodd" d="M44.375 63.9841V98.1641L56.441 98.1371C68.929 98.1051 68.839 98.1091 70.668 97.8201C79.93 96.3671 85.336 89.9881 85.813 79.9571C86.266 70.4371 81.523 63.5781 73.403 62.0041C73.11 61.9461 73.203 61.8641 73.747 61.7071C79.173 60.1491 83.094 53.8831 83.094 46.7811C83.094 38.4571 78.661 32.2381 71.43 30.4141C68.993 29.8011 69.231 29.8091 55.907 29.8091H44.377V63.9851L44.375 63.9841ZM66.403 38.8291C71.552 39.7001 74.068 42.6141 74.228 47.8991C74.392 53.4301 71.868 57.0241 66.931 58.2941C65.314 58.7081 64.278 58.7671 58.31 58.7671H53.228V48.7791C53.228 43.2861 53.248 38.7711 53.267 38.7441C53.333 38.6621 65.887 38.7441 66.404 38.8291H66.403ZM67.415 67.2821C73.513 68.1851 76.517 71.4581 76.779 77.4931C77.056 83.9081 73.986 87.9701 68.111 88.9541C66.798 89.1771 66.161 89.1931 59.724 89.1931L53.228 89.1971V67.1191L59.935 67.1421C65.849 67.1661 66.735 67.1821 67.415 67.2821Z" fill="#F6F1FB"/>
<path fill-rule="evenodd" clip-rule="evenodd" d="M83.7067 0.629119C83.4997 0.945119 83.2847 1.30112 83.2227 1.41412C83.1608 1.52712 82.9607 1.82812 82.7807 2.08212C82.6007 2.33612 82.4528 2.57812 82.4528 2.62212C82.4528 2.66412 82.3627 2.81612 82.2527 2.96112C81.9527 3.35912 81.6557 3.83212 81.6557 3.91412C81.6557 3.95712 81.6087 4.02712 81.5587 4.07412C81.5037 4.12512 81.1867 4.59812 80.8517 5.13312C80.5187 5.66812 80.2028 6.14112 80.1517 6.19112C80.0977 6.23812 80.0547 6.30912 80.0547 6.35112C80.0547 6.43412 79.6947 7.01112 79.5938 7.09012C79.5587 7.11712 79.4218 7.34812 79.2848 7.60512C79.1478 7.86312 79.0187 8.07812 78.9997 8.07812C78.9808 8.07812 78.8517 8.26212 78.7227 8.48012C78.5897 8.70012 78.3128 9.14512 78.1087 9.46512C77.6367 10.2031 77.6908 10.1171 77.4137 10.5751C77.2884 10.7789 77.1557 10.978 77.0157 11.1721C76.9258 11.2851 76.8557 11.4101 76.8557 11.4491C76.8517 11.4891 76.6717 11.7731 76.4527 12.0861C76.2337 12.3991 76.0547 12.6881 76.0547 12.7261C76.0547 12.7701 75.9767 12.9021 75.8787 13.0311C75.5977 13.3951 75.2537 13.9381 75.2537 14.0201C75.2537 14.0631 75.2377 14.0941 75.2137 14.0941C75.1907 14.0941 74.9957 14.3871 74.7737 14.7381C74.5537 15.0941 74.2537 15.5631 74.1087 15.7811C73.9607 16.0011 73.7337 16.3631 73.6017 16.5941C73.4804 16.8049 73.3486 17.0095 73.2067 17.2071C73.0939 17.3601 72.9935 17.522 72.9067 17.6911C72.8241 17.8505 72.7299 18.0036 72.6247 18.1491C72.5507 18.2391 72.3867 18.4891 72.2577 18.6951C71.8357 19.4021 71.3907 20.0781 71.3237 20.1331C71.2847 20.1641 71.2537 20.2191 71.2537 20.2541C71.2537 20.3361 70.9367 20.8441 70.6557 21.2111C70.5457 21.3591 70.4527 21.5081 70.4527 21.5471C70.4527 21.5861 70.2847 21.8591 70.0777 22.1521C69.9208 22.3699 69.7749 22.5955 69.6407 22.8281C69.5617 23.0001 68.3317 24.9341 68.2417 25.0281C68.1653 25.1335 68.0987 25.2456 68.0427 25.3631C67.9241 25.5848 67.7897 25.7976 67.6407 26.0001C67.4957 26.2001 67.3157 26.4841 67.2417 26.6331C67.1286 26.8423 67.0006 27.0432 66.8587 27.2341C66.7267 27.4181 66.6127 27.5861 66.6127 27.6091C66.6127 27.6291 64.6717 27.6331 62.2967 27.6171L57.9767 27.5861L57.8467 27.7771C57.7727 27.8831 57.6717 28.0351 57.6167 28.1171L57.5197 28.2621L52.3747 28.3281C49.2887 28.3711 47.1017 28.4261 46.9057 28.4681L46.1087 28.6451C45.5817 28.7621 44.7187 29.1481 44.4607 29.3871C44.3667 29.4691 44.2107 29.5941 44.1087 29.6681C43.8007 29.8781 42.9337 31.1601 42.9337 31.4021C42.9337 31.4491 42.8787 31.6291 42.8087 31.8011C42.7387 31.9771 42.6207 32.3871 42.5467 32.7191C42.1867 34.3321 42.1907 34.2811 42.1867 43.9261V52.5201L41.6567 53.2701V67.0501L41.3437 67.5391C41.1717 67.8091 40.9917 68.0701 40.9447 68.1211C40.8947 68.1711 40.8547 68.2421 40.8547 68.2771C40.8547 68.3471 40.5897 68.7571 40.2457 69.2301C40.1407 69.3751 40.0547 69.5271 40.0547 69.5661C40.0547 69.6091 39.9687 69.7621 39.8627 69.9061C39.5117 70.3861 39.2527 70.7891 39.2527 70.8591C39.2527 70.8991 39.2267 70.9571 39.1867 70.9841C39.1167 71.0391 38.6517 71.7581 38.2567 72.4141C38.1485 72.599 38.03 72.7776 37.9017 72.9491C37.7793 73.1191 37.6697 73.2979 37.5737 73.4841C37.4637 73.6841 37.3037 73.9371 37.2137 74.0471C37.0881 74.2177 36.9761 74.3979 36.8787 74.5861C36.8048 74.739 36.7157 74.8841 36.6127 75.0191C36.4797 75.1561 36.0547 75.8671 36.0547 75.9491C36.0547 75.9891 36.0347 76.0191 36.0077 76.0191C35.9837 76.0191 35.8197 76.2461 35.6477 76.5231C35.4767 76.7971 35.3157 77.0231 35.2967 77.0231C35.2727 77.0231 35.2537 77.0581 35.2537 77.0971C35.2537 77.1831 34.7927 77.9171 34.5937 78.1571C34.5157 78.2461 34.4537 78.3511 34.4537 78.3901C34.4537 78.4291 34.2767 78.7191 34.0537 79.0311C33.8357 79.3441 33.6557 79.6331 33.6557 79.6711C33.6557 79.7151 33.5897 79.8311 33.5077 79.9411C33.3867 80.1011 33.2267 80.3441 32.8127 81.0041C32.7887 81.0391 32.6287 81.2931 32.4527 81.5621C32.2767 81.8311 32.0977 82.1211 32.0547 82.1991C31.9217 82.4451 31.5507 83.0081 31.5037 83.0311C31.4797 83.0471 31.3547 83.2651 31.2227 83.5191C31.0857 83.7691 30.9487 83.9991 30.9137 84.0311C30.8317 84.0941 30.4537 84.6801 30.4537 84.7421C30.4537 84.7691 30.3157 84.9921 30.1437 85.2381C29.9767 85.4841 29.6597 85.9681 29.4407 86.3201C29.2267 86.6681 29.0197 86.9801 28.9807 87.0081C28.9407 87.0351 28.8747 87.1561 28.8277 87.2731C28.7847 87.3941 28.6247 87.6561 28.4767 87.8591C28.3277 88.0591 28.1447 88.3471 28.0697 88.4921C27.9626 88.6919 27.8413 88.8837 27.7067 89.0661C27.5688 89.2579 27.4423 89.4576 27.3277 89.6641C27.2457 89.8241 27.1247 90.0191 27.0657 90.0941C26.8428 90.4253 26.6268 90.761 26.4177 91.1011C26.1207 91.5781 25.8277 92.0271 25.7657 92.0971C25.7067 92.1671 25.6517 92.2571 25.6517 92.3011C25.6517 92.3401 25.4717 92.6291 25.2537 92.9371C25.0347 93.2501 24.8547 93.5391 24.8547 93.5821C24.8547 93.6211 24.7767 93.7581 24.6797 93.8821C24.3897 94.2621 24.0547 94.7921 24.0547 94.8711C24.0517 94.8949 24.044 94.9179 24.032 94.9387C24.0199 94.9595 24.0039 94.9776 23.9847 94.9921C23.9177 95.0471 23.5037 95.6831 23.0507 96.4291C22.9421 96.6155 22.8233 96.7958 22.6947 96.9691C22.6247 97.0541 22.4797 97.2891 22.3747 97.4891C22.2697 97.6891 22.0977 97.9571 21.9957 98.0861C21.8686 98.2636 21.7501 98.4472 21.6407 98.6361C21.5467 98.8081 21.3277 99.1521 21.1607 99.4021C20.9937 99.6521 20.8547 99.8941 20.8547 99.9421C20.8547 99.9901 20.8317 100.031 20.8087 100.031C20.7847 100.031 20.6207 100.254 20.4487 100.531C20.2767 100.804 20.1167 101.031 20.0937 101.031C20.0737 101.031 20.0537 101.062 20.0537 101.101C20.0537 101.183 19.5387 102.004 19.3667 102.195C19.3047 102.265 19.2537 102.355 19.2537 102.398C19.2537 102.438 19.0737 102.726 18.8547 103.038C18.6357 103.35 18.4567 103.64 18.4567 103.683C18.4527 103.723 18.3867 103.843 18.3007 103.949C18.1327 104.164 16.9297 106.051 16.7967 106.316C16.7467 106.406 16.5617 106.691 16.3827 106.946C16.2027 107.199 16.0547 107.437 16.0547 107.48C16.0547 107.52 15.9647 107.676 15.8517 107.82C15.5547 108.215 15.2537 108.691 15.2537 108.777C15.2537 108.817 15.2107 108.89 15.1557 108.937C15.1057 108.984 14.8747 109.324 14.6447 109.691C14.1597 110.473 14.1517 110.481 14.1597 110.133C14.1637 109.988 14.1477 109.883 14.1247 109.898C14.0347 109.968 14.0937 112.992 14.1837 112.957C14.2497 112.93 14.2537 112.937 14.1947 112.988C14.1207 113.055 14.1247 113.207 14.2147 114.074C14.2417 114.344 14.3347 114.949 14.3867 115.211C14.3977 115.265 14.4067 115.394 14.4067 115.5C14.4067 115.601 14.4447 115.703 14.4877 115.726C14.5347 115.746 14.5467 115.781 14.5157 115.804C14.4877 115.828 14.4757 115.929 14.4917 116.027C14.5077 116.129 14.5427 116.195 14.5657 116.176C14.5937 116.156 14.6017 116.183 14.5817 116.234C14.5507 116.344 14.8007 117.301 14.9217 117.535C14.9647 117.617 14.9837 117.683 14.9647 117.683C14.9487 117.683 14.9877 117.828 15.0587 118.003C15.1247 118.176 15.2147 118.449 15.2537 118.605C15.2927 118.762 15.3477 118.887 15.3747 118.887C15.3977 118.887 15.4097 118.91 15.3947 118.937C15.3827 118.969 15.4767 119.215 15.6047 119.492C15.7347 119.765 15.8907 120.129 15.9527 120.292C16.0147 120.455 16.1597 120.75 16.2727 120.945C16.8047 121.844 16.9257 122.031 16.9727 122.031C16.9997 122.031 17.0077 122.058 16.9927 122.09C16.9767 122.125 17.0817 122.312 17.2297 122.508C17.3787 122.707 17.5587 122.965 17.6327 123.086C18.0387 123.746 19.7297 125.426 20.5627 125.988C21.2027 126.422 21.9257 126.859 22.1017 126.922C22.1917 126.952 22.5507 127.102 22.8977 127.25C23.2417 127.398 23.8197 127.605 24.1757 127.703L24.8277 127.883H103.176L103.844 127.699C104.366 127.545 104.878 127.362 105.379 127.149C106.161 126.816 106.461 126.644 107.519 125.945C108.528 125.273 110.067 123.621 111.004 122.199C111.223 121.863 112.004 120.476 112.004 120.422C112.004 120.39 112.118 120.132 112.258 119.844C112.602 119.124 112.985 118.039 113.325 116.816C113.493 116.211 113.528 116.039 113.746 114.574L113.891 113.637L113.895 107.988C113.903 101.711 113.934 100.75 114.27 96.1181C114.485 93.1441 114.575 92.3631 115.07 88.9301C115.317 87.2031 116.036 83.6951 116.407 82.3981C116.543 81.9261 116.719 81.2811 116.805 80.9651C116.887 80.6521 117.032 80.1841 117.121 79.9301C117.215 79.6761 117.364 79.2541 117.453 78.9961C118.013 77.3711 118.766 75.6961 119.496 74.4611C120.2 73.2771 120.329 73.0821 120.946 72.3051C122.274 70.6331 123.797 69.4451 125.418 68.8121C126.223 68.4961 126.946 68.2821 127.5 68.1871L128.004 68.1051V59.8601L127.5 59.7781C126.676 59.6421 125.227 59.1421 124.547 58.7581C124.43 58.6885 124.31 58.6251 124.187 58.5681C124.172 58.5681 123.993 58.4461 123.786 58.3021C123.579 58.1531 123.387 58.0321 123.36 58.0321C123.309 58.0321 122.575 57.3991 121.98 56.8371C121.52 56.4031 120.407 55.0211 120.09 54.4891C120.01 54.353 119.927 54.2189 119.84 54.0871C119.77 54.0171 119.16 52.9351 118.868 52.3571C118.434 51.5171 117.828 50.0631 117.454 48.9701C117.344 48.6582 117.233 48.3468 117.121 48.0361C117.031 47.7821 116.887 47.3171 116.805 47.0011C116.719 46.6881 116.543 46.0401 116.407 45.5671C116.036 44.2741 115.317 40.7671 115.071 39.0401C114.575 35.6181 114.493 34.8681 114.27 31.8491C113.934 27.2711 113.903 26.2551 113.895 20.0131C113.891 14.4931 113.887 14.3831 113.77 13.5951C113.709 13.1946 113.651 12.7936 113.598 12.3921C113.469 11.4191 112.77 9.18512 112.258 8.12612C112.118 7.83612 112.004 7.57612 112.004 7.54812C112.004 7.48912 111.224 6.10212 111.004 5.77012C110.082 4.36812 108.469 2.62612 107.547 2.04012C107.403 1.95012 107.043 1.71612 106.754 1.52012C106.461 1.32512 106.149 1.14512 106.059 1.11412C105.969 1.08712 105.594 0.927119 105.223 0.763119C104.787 0.572672 104.341 0.408053 103.887 0.270119L103.231 0.0831191L93.6567 0.0671191L84.0788 0.0471191L83.7077 0.630119L83.7067 0.629119ZM67.8167 29.8101C69.5427 29.9231 71.5117 30.2831 72.6167 30.6891C75.0387 31.5791 76.5817 32.4971 78.1758 34.0051C83.5547 39.0911 84.7617 48.8651 80.8637 55.7201C79.1287 58.7711 76.3477 61.1341 73.7697 61.7551C73.1297 61.9081 73.1367 61.9151 74.1757 62.1261C82.5977 63.8491 87.2698 72.5961 85.4958 83.3101C84.1558 91.3851 78.6517 96.7441 70.5267 97.8841C68.6597 98.1501 68.1667 98.1581 56.0967 98.1581H44.3237V29.7431H55.5617C62.2017 29.7431 67.2177 29.7701 67.8157 29.8091L67.8167 29.8101ZM53.2807 48.7401V58.7101L58.9757 58.6821C65.1397 58.6541 64.9647 58.6621 66.7607 58.2641C71.6787 57.1741 74.3007 53.5611 74.1757 48.0371C74.0657 43.3651 72.1287 40.5061 68.2417 39.2791C66.7917 38.8221 65.9057 38.7751 58.9487 38.7751L53.2807 38.7711V48.7401ZM53.2807 78.1311V89.1351L60.2807 89.1121C67.9017 89.0881 67.5777 89.1001 69.1867 88.6941C74.0887 87.4591 76.5927 84.0881 76.7337 78.5261C76.8857 72.5291 74.2567 68.8501 68.9637 67.6391C66.9717 67.1821 65.9637 67.1311 58.9757 67.1311L53.2807 67.1271V78.1301V78.1311ZM12.8587 88.4351C12.8587 88.5051 12.8817 88.6071 12.9137 88.6611C12.9527 88.7361 12.9567 88.7081 12.9287 88.5601C12.8857 88.3141 12.8547 88.2631 12.8587 88.4351ZM13.6677 95.1501C13.6677 95.2791 13.6787 95.3301 13.6947 95.2671C13.7065 95.1892 13.7065 95.11 13.6947 95.0321C13.6787 94.9661 13.6677 95.0211 13.6677 95.1501ZM13.7297 95.9431C13.7497 96.0681 13.7607 96.2861 13.7607 96.4271C13.7607 96.5721 13.7847 96.6851 13.8077 96.6851C13.8547 96.6851 13.7847 95.8221 13.7297 95.7591C13.7097 95.7361 13.7097 95.8181 13.7297 95.9431ZM14.0107 99.8761C13.9907 99.9001 13.9757 99.9931 13.9757 100.087C13.9757 100.298 14.0347 100.236 14.0537 100.001C14.0697 99.8181 14.0657 99.8061 14.0107 99.8761ZM14.0307 101.256C14.0307 101.392 14.0507 101.501 14.0777 101.501C14.1007 101.501 14.1127 101.407 14.1007 101.291C14.0737 100.989 14.0307 100.966 14.0307 101.255V101.256ZM14.1707 103.685C14.1207 103.751 14.1277 104.055 14.1827 104.013C14.2107 103.993 14.2297 103.903 14.2297 103.81C14.2297 103.626 14.2257 103.618 14.1707 103.685ZM14.1707 104.161C14.1357 104.243 14.1437 104.923 14.1827 104.876C14.2107 104.841 14.2327 104.111 14.2067 104.111C14.1987 104.111 14.1867 104.134 14.1707 104.161ZM14.1707 105.025C14.1507 105.048 14.1357 105.142 14.1357 105.235C14.1357 105.443 14.1987 105.376 14.2177 105.15C14.2337 104.97 14.2297 104.954 14.1707 105.025ZM14.1357 105.728C14.1357 105.88 14.1557 105.982 14.1757 105.954C14.2297 105.884 14.2337 105.447 14.1787 105.447C14.1557 105.447 14.1357 105.572 14.1357 105.727V105.728ZM14.1357 106.259C14.1357 106.376 14.1517 106.45 14.1707 106.427C14.2337 106.349 14.2457 106.127 14.1867 106.083C14.1597 106.06 14.1367 106.134 14.1367 106.259H14.1357ZM14.1367 107.447C14.1367 107.794 14.1517 108.056 14.1707 108.032C14.2257 107.962 14.2377 107.032 14.1867 106.919C14.1557 106.857 14.1397 107.056 14.1367 107.446V107.447ZM14.1367 108.458C14.1367 108.72 14.2137 108.72 14.2217 108.458C14.2257 108.345 14.2067 108.255 14.1827 108.255C14.1557 108.255 14.1357 108.345 14.1357 108.458H14.1367ZM14.1357 108.935C14.1357 109.181 14.1707 109.169 14.2107 108.907C14.2257 108.806 14.2137 108.724 14.1867 108.724C14.1597 108.724 14.1367 108.821 14.1367 108.934L14.1357 108.935ZM14.1637 109.4C14.1907 109.68 14.2417 109.732 14.2417 109.474C14.2417 109.361 14.2177 109.251 14.1907 109.228C14.1637 109.204 14.1507 109.275 14.1637 109.4Z" fill="#790AF6"/>
<path fill-rule="evenodd" clip-rule="evenodd" d="M24.641 0.184025C23.223 0.488025 21.793 1.11403 20.711 1.91003C20.501 2.06303 20.313 2.19103 20.293 2.19103C20.254 2.19103 19.098 3.19503 18.953 3.35903C17.969 4.46103 17.773 4.69502 17.329 5.33203C17.024 5.77703 16.192 7.17203 16.098 7.40603C16.0049 7.61982 15.9086 7.83218 15.809 8.04303C15.18 9.36303 14.614 11.231 14.375 12.746C14.114 14.406 14.118 14.313 14.11 20.414C14.102 26.07 14.07 27.348 13.895 29.844C13.879 30.063 13.817 30.922 13.755 31.75C13.695 32.578 13.637 33.434 13.621 33.656C13.586 34.301 13.301 36.68 13.091 38.07C13.0025 38.6328 12.9225 39.1969 12.851 39.762C12.781 40.34 12.047 43.965 11.832 44.789C11.52 46 10.957 47.91 10.723 48.57C10.6496 48.7695 10.5796 48.9702 10.513 49.172C9.763 51.66 7.68 55.238 6.055 56.836C5.2 57.672 3.297 59.036 2.977 59.036C2.934 59.036 2.754 59.098 2.582 59.172C2.036 59.41 1.063 59.699 0.52 59.782L0 59.863L0.012 63.977L0.028 68.09L0.614 68.203C3.231 68.703 5.821 70.403 7.329 72.602C7.419 72.734 7.509 72.855 7.528 72.863C7.578 72.895 8.309 74.031 8.567 74.484C8.981 75.207 9.54 76.332 9.79 76.957C9.93 77.305 10.086 77.668 10.133 77.762C10.321 78.113 11.263 80.938 11.211 81C11.196 81.02 11.207 81.035 11.235 81.035C11.266 81.035 11.29 81.075 11.293 81.121C11.297 81.168 11.43 81.688 11.59 82.281C11.852 83.234 11.993 83.801 12.028 84.016L12.157 84.617C12.29 85.211 12.286 85.184 12.399 85.785C12.446 86.024 12.509 86.309 12.536 86.422C12.649 86.891 12.899 88.32 12.938 88.762C12.954 88.906 12.977 89.074 12.993 89.129C13.008 89.184 13.032 89.348 13.047 89.496C13.062 89.644 13.11 89.973 13.149 90.231C13.282 91.082 13.539 93.164 13.579 93.676C13.622 94.289 13.633 94.418 13.676 94.848C13.692 95.031 13.719 95.359 13.735 95.574C13.751 95.789 13.774 95.988 13.79 96.02C13.801 96.047 13.817 96.328 13.825 96.645C13.829 96.961 13.855 97.219 13.883 97.219C13.911 97.219 13.918 97.262 13.903 97.313C13.888 97.364 13.903 97.442 13.938 97.488C13.985 97.555 13.985 97.563 13.934 97.528C13.852 97.468 13.844 97.645 13.922 97.824C13.958 97.906 13.958 97.961 13.922 97.988C13.887 98.016 13.887 98.078 13.911 98.145C13.938 98.207 13.95 98.43 13.941 98.645C13.934 98.855 13.941 99.015 13.961 99C13.985 98.984 13.997 99.18 13.993 99.434C13.989 99.688 14 99.883 14.02 99.867C14.04 99.856 14.06 100.117 14.063 100.453C14.066 100.789 14.086 101.563 14.106 102.168C14.122 102.778 14.137 103.371 14.137 103.492C14.141 103.613 14.161 103.695 14.184 103.676C14.208 103.66 14.227 103.719 14.227 103.809C14.227 103.902 14.207 103.992 14.18 104.012C14.1656 104.026 14.154 104.042 14.1459 104.06C14.1378 104.078 14.1334 104.097 14.133 104.117C14.133 104.152 14.161 104.16 14.196 104.137C14.231 104.106 14.243 104.117 14.219 104.164C14.165 104.274 14.145 104.707 14.196 104.668C14.262 104.618 14.246 104.808 14.18 104.895C14.133 104.953 14.133 104.996 14.184 105.07C14.231 105.145 14.234 105.207 14.188 105.309C14.157 105.383 14.153 105.445 14.176 105.445C14.231 105.445 14.231 105.848 14.172 105.961C14.149 106.004 14.157 106.059 14.184 106.082C14.243 106.125 14.234 106.301 14.168 106.434C14.145 106.484 14.157 106.516 14.196 106.516C14.243 106.52 14.246 106.536 14.211 106.566C14.181 106.594 14.165 106.691 14.176 106.786C14.208 107.043 14.204 107.937 14.168 108.106C14.153 108.188 14.161 108.254 14.188 108.254C14.25 108.254 14.227 108.609 14.161 108.672C14.125 108.703 14.129 108.722 14.168 108.722C14.227 108.722 14.219 109.004 14.157 109.132C14.145 109.16 14.157 109.199 14.188 109.222C14.215 109.246 14.238 109.363 14.238 109.48C14.238 109.645 14.227 109.668 14.184 109.594C14.149 109.524 14.137 109.609 14.153 109.894C14.165 110.133 14.149 110.332 14.113 110.391C14.067 110.469 14.071 110.473 14.141 110.421C14.188 110.391 14.415 110.063 14.645 109.691C14.872 109.324 15.102 108.984 15.157 108.938C15.212 108.892 15.254 108.816 15.254 108.778C15.254 108.691 15.555 108.215 15.852 107.82C15.962 107.676 16.055 107.52 16.055 107.48C16.055 107.438 16.2 107.2 16.379 106.945C16.558 106.69 16.747 106.406 16.793 106.316C16.93 106.051 18.133 104.164 18.301 103.949C18.387 103.844 18.454 103.723 18.454 103.684C18.454 103.641 18.634 103.352 18.856 103.039C19.075 102.727 19.254 102.438 19.254 102.399C19.254 102.355 19.305 102.266 19.368 102.195C19.54 102.004 20.055 101.184 20.055 101.102C20.055 101.062 20.071 101.032 20.095 101.032C20.119 101.032 20.278 100.805 20.45 100.532C20.622 100.254 20.782 100.032 20.81 100.032C20.833 100.032 20.852 99.988 20.852 99.942C20.852 99.896 20.992 99.652 21.161 99.402C21.329 99.152 21.543 98.809 21.641 98.637C21.735 98.465 21.895 98.219 21.997 98.086C22.098 97.957 22.267 97.687 22.375 97.488C22.4694 97.3074 22.5763 97.1337 22.695 96.968C22.8207 96.7935 22.9395 96.614 23.051 96.43C23.504 95.684 23.918 95.047 23.985 94.992C24.004 94.9777 24.02 94.9596 24.032 94.939C24.0441 94.9184 24.0519 94.8957 24.055 94.872C24.055 94.792 24.391 94.262 24.68 93.882C24.774 93.758 24.852 93.622 24.852 93.582C24.852 93.539 25.032 93.25 25.254 92.937C25.474 92.629 25.653 92.34 25.653 92.301C25.653 92.258 25.703 92.168 25.766 92.098C25.829 92.028 26.122 91.578 26.418 91.102C26.715 90.625 27.004 90.172 27.067 90.094C27.1633 89.9564 27.2508 89.8127 27.329 89.664C27.415 89.5 27.582 89.234 27.707 89.066C27.832 88.898 27.993 88.641 28.071 88.492C28.145 88.348 28.329 88.059 28.477 87.859C28.625 87.656 28.786 87.395 28.829 87.273C28.875 87.156 28.942 87.035 28.981 87.008C29.02 86.98 29.227 86.668 29.441 86.32C29.657 85.969 29.973 85.484 30.145 85.238C30.313 84.992 30.454 84.77 30.454 84.742C30.454 84.68 30.832 84.094 30.914 84.032C30.95 84 31.086 83.77 31.219 83.52C31.352 83.266 31.481 83.047 31.504 83.031C31.547 83.008 31.922 82.445 32.055 82.199C32.3035 81.798 32.5561 81.3997 32.813 81.004C33.227 80.344 33.387 80.102 33.508 79.941C33.586 79.832 33.657 79.715 33.657 79.671C33.657 79.633 33.837 79.344 34.055 79.031C34.273 78.718 34.454 78.43 34.454 78.391C34.454 78.352 34.516 78.246 34.594 78.156C34.794 77.918 35.254 77.184 35.254 77.098C35.254 77.058 35.274 77.023 35.294 77.023C35.317 77.023 35.477 76.797 35.649 76.523C35.821 76.246 35.981 76.02 36.009 76.02C36.032 76.02 36.055 75.988 36.055 75.95C36.055 75.867 36.481 75.156 36.614 75.02C36.664 74.965 36.782 74.773 36.879 74.586C36.9765 74.3974 37.0888 74.2168 37.215 74.046C37.305 73.938 37.465 73.684 37.575 73.484C37.6709 73.2978 37.7806 73.119 37.903 72.949C37.973 72.859 38.133 72.617 38.258 72.414C38.648 71.758 39.118 71.039 39.188 70.984C39.2253 70.9524 39.2489 70.9076 39.254 70.859C39.254 70.789 39.508 70.387 39.86 69.906C39.965 69.762 40.055 69.609 40.055 69.566C40.055 69.527 40.141 69.375 40.247 69.23C40.59 68.758 40.852 68.348 40.852 68.277C40.852 68.242 40.895 68.172 40.942 68.121C40.992 68.071 41.172 67.809 41.344 67.539L41.653 67.051V53.27L41.923 52.895L42.188 52.52V43.926C42.188 34.281 42.188 34.332 42.548 32.719C42.6159 32.4079 42.703 32.1013 42.809 31.801C42.875 31.629 42.934 31.449 42.934 31.403C42.934 31.16 43.801 29.879 44.106 29.668C44.211 29.594 44.368 29.469 44.458 29.387C44.719 29.149 45.578 28.762 46.106 28.645L46.906 28.469C47.098 28.426 49.289 28.371 52.376 28.329L57.52 28.262L57.618 28.117C57.668 28.035 57.774 27.883 57.844 27.777L57.977 27.587L62.293 27.617C64.673 27.633 66.613 27.629 66.613 27.61C66.613 27.586 66.723 27.418 66.86 27.235C66.993 27.051 67.165 26.781 67.239 26.633C67.3608 26.4145 67.4951 26.2032 67.641 26C67.79 25.801 67.969 25.512 68.043 25.364C68.118 25.215 68.207 25.067 68.243 25.028C68.333 24.934 69.559 23 69.637 22.828C69.672 22.75 69.872 22.449 70.079 22.153C70.286 21.86 70.454 21.586 70.454 21.547C70.454 21.508 70.544 21.36 70.657 21.211C70.937 20.844 71.254 20.336 71.254 20.254C71.254 20.219 71.286 20.164 71.321 20.134C71.391 20.078 71.832 19.403 72.258 18.696C72.383 18.489 72.548 18.239 72.622 18.149C72.696 18.055 72.825 17.848 72.907 17.692C72.9925 17.5219 73.0929 17.3596 73.207 17.207C73.289 17.097 73.469 16.821 73.602 16.594C73.731 16.364 73.962 16 74.106 15.781C74.254 15.563 74.556 15.094 74.774 14.738C74.993 14.387 75.192 14.094 75.215 14.094C75.235 14.094 75.255 14.063 75.255 14.02C75.255 13.938 75.598 13.395 75.879 13.031C75.973 12.903 76.055 12.77 76.055 12.727C76.055 12.687 76.235 12.399 76.454 12.087C76.673 11.775 76.852 11.488 76.852 11.449C76.852 11.41 76.926 11.285 77.012 11.172C77.102 11.059 77.282 10.789 77.411 10.574C77.691 10.117 77.637 10.204 78.11 9.46503C78.313 9.14503 78.59 8.69903 78.72 8.48103C78.852 8.26103 78.977 8.07803 79 8.07803C79.02 8.07803 79.149 7.86303 79.286 7.60603C79.418 7.34803 79.559 7.11703 79.594 7.09003C79.692 7.01203 80.055 6.43403 80.055 6.35203C80.055 6.30903 80.098 6.23803 80.149 6.19203C80.204 6.14103 80.52 5.66803 80.852 5.13303C81.184 4.59803 81.5 4.12503 81.555 4.07403C81.61 4.02803 81.653 3.95703 81.653 3.91403C81.653 3.83203 81.95 3.36003 82.254 2.96103C82.364 2.81703 82.454 2.66403 82.454 2.62103C82.454 2.57803 82.602 2.33603 82.782 2.08203C82.929 1.87926 83.0658 1.66934 83.192 1.45303C83.239 1.36303 83.399 1.10603 83.547 0.887025C83.696 0.664025 83.872 0.387025 83.937 0.266025L84.063 0.0510254L54.629 0.0550254C26.578 0.0630254 25.172 0.0700254 24.64 0.184025" fill="#8C0BFB"/>
<path fill-rule="evenodd" clip-rule="evenodd" d="M44.3438 63.9492C44.3438 82.7462 44.3517 90.4261 44.3597 81.0151C44.3677 71.6041 44.3667 56.2262 44.3597 46.8391C44.3517 37.4561 44.3438 45.1552 44.3438 63.9482V63.9492ZM67.8237 29.8541C67.8897 29.8701 67.9998 29.8701 68.0658 29.8541C68.1318 29.8381 68.0777 29.8271 67.9457 29.8271C67.8117 29.8271 67.7577 29.8381 67.8237 29.8541ZM79.8397 35.9832C79.8397 35.9952 79.9177 36.0932 80.0117 36.1982L80.1878 36.3971L80.0277 36.1782C79.8827 35.9752 79.8397 35.9282 79.8397 35.9832ZM53.2617 38.7531C53.2387 38.7991 57.3907 38.7991 62.9337 38.7531C64.0897 38.7411 62.3937 38.7291 59.1637 38.7171C55.9297 38.7091 53.2737 38.7251 53.2617 38.7521V38.7531ZM65.8237 38.8151C65.8787 38.8351 65.9607 38.8351 66.0117 38.8151C66.0617 38.7991 66.0227 38.7841 65.9177 38.7841C65.8157 38.7841 65.7727 38.7991 65.8237 38.8141V38.8151ZM72.2657 41.8811C72.4257 42.0811 72.5657 42.2481 72.5817 42.2481C72.5977 42.2481 72.4757 42.0811 72.3197 41.8811C72.2229 41.7508 72.1173 41.6272 72.0037 41.5112C71.9877 41.5112 72.1047 41.6781 72.2657 41.8811ZM83.1097 46.8271C83.1097 47.0491 83.1168 47.1311 83.1328 47.0101C83.1448 46.8901 83.1447 46.7101 83.1287 46.6082C83.1167 46.5102 83.1087 46.6081 83.1087 46.8271H83.1097ZM74.1987 47.6631C74.1987 47.8311 74.2107 47.8971 74.2227 47.8151C74.2344 47.7155 74.2344 47.6148 74.2227 47.5151C74.2107 47.4321 74.1987 47.4981 74.1987 47.6631ZM83.0508 48.1982C83.0508 48.3272 83.0627 48.3811 83.0737 48.3151C83.0893 48.2379 83.0893 48.1584 83.0737 48.0812C83.0627 48.0182 83.0508 48.0692 83.0508 48.1982ZM74.1987 49.0681C74.1987 49.2332 74.2107 49.3031 74.2227 49.2181C74.2346 49.1178 74.2346 49.0165 74.2227 48.9161C74.2107 48.8341 74.1987 48.9051 74.1987 49.0691V49.0681ZM78.9017 58.3811L78.7458 58.6001L78.9177 58.4002C79.0817 58.2171 79.1177 58.1631 79.0737 58.1631C79.0657 58.1631 78.9877 58.2601 78.9017 58.3811ZM65.0778 58.6111C65.1394 58.6269 65.2041 58.6269 65.2657 58.6111C65.3157 58.5921 65.2737 58.5812 65.1717 58.5812C65.0697 58.5812 65.0278 58.5921 65.0778 58.6111ZM64.4137 58.6782C64.4926 58.6939 64.5739 58.6939 64.6527 58.6782C64.7187 58.6632 64.6637 58.6511 64.5317 58.6511C64.3997 58.6511 64.3477 58.6632 64.4137 58.6782ZM55.8557 58.7481C57.3157 58.7601 59.6957 58.7601 61.1367 58.7481C62.5777 58.7411 61.3827 58.7281 58.4807 58.7281C55.5747 58.7281 54.3947 58.7411 55.8557 58.7481ZM82.1058 67.0581C82.3088 67.3151 82.4887 67.5261 82.5037 67.5261C82.5157 67.5261 82.3638 67.3151 82.1598 67.0571C81.9568 66.7991 81.7777 66.5881 81.7617 66.5881C81.7458 66.5881 81.9018 66.7991 82.1058 67.0581ZM65.5857 67.1742C65.6827 67.1902 65.8277 67.1902 65.9057 67.1742C65.9877 67.1592 65.9097 67.1472 65.7337 67.1472C65.5537 67.1472 65.4917 67.1592 65.5857 67.1742ZM66.5737 67.2371C66.6237 67.2571 66.7068 67.2571 66.7578 67.2371C66.8078 67.2211 66.7687 67.2062 66.6637 67.2062C66.5618 67.2062 66.5187 67.2211 66.5737 67.2361V67.2371ZM74.6137 70.9051C74.8007 71.1431 74.9688 71.3381 74.9837 71.3381C74.9957 71.3381 74.8547 71.1431 74.6637 70.9051C74.5505 70.7518 74.4279 70.6055 74.2967 70.4672C74.2807 70.4672 74.4217 70.6631 74.6127 70.9051H74.6137ZM76.7647 78.0922C76.7647 78.5142 76.7728 78.6901 76.7848 78.4751C76.7965 78.2199 76.7965 77.9643 76.7848 77.7091C76.7728 77.4991 76.7647 77.6702 76.7647 78.0922ZM85.8278 77.9242C85.8278 78.1472 85.8397 78.2291 85.8507 78.1082C85.8627 77.9872 85.8627 77.8082 85.8507 77.7062C85.8397 77.6082 85.8278 77.7062 85.8278 77.9242ZM85.8278 79.6632C85.8278 79.8852 85.8397 79.9671 85.8507 79.8461C85.8627 79.7262 85.8627 79.5462 85.8507 79.4441C85.8397 79.3461 85.8278 79.4441 85.8278 79.6632ZM74.5817 85.4672L74.3197 85.8152L74.5977 85.4871C74.7537 85.3032 74.8777 85.1432 74.8777 85.1352C74.8777 85.0852 74.8277 85.1392 74.5817 85.4672ZM84.2497 87.5571C84.1997 87.6861 84.1717 87.7911 84.1837 87.7911C84.2227 87.7911 84.3827 87.3811 84.3587 87.3511C84.3477 87.3341 84.2967 87.4281 84.2487 87.5571H84.2497ZM66.0387 89.1742C66.1208 89.1902 66.2487 89.1902 66.3317 89.1742C66.4147 89.1582 66.3467 89.1472 66.1867 89.1472C66.0227 89.1472 65.9567 89.1592 66.0387 89.1742ZM81.8907 91.6861L81.6797 91.9672L81.9067 91.7062C82.1167 91.4591 82.1567 91.4011 82.1167 91.4011C82.1097 91.4011 82.0037 91.5301 81.8907 91.6861ZM68.7578 98.0692C68.8191 98.0847 68.8834 98.0847 68.9447 98.0692C68.9957 98.0492 68.9527 98.0381 68.8517 98.0381C68.7497 98.0381 68.7068 98.0491 68.7578 98.0681V98.0692ZM67.1598 98.1391C67.3318 98.1511 67.5938 98.1511 67.7458 98.1391C67.9018 98.1231 67.7618 98.1122 67.4378 98.1122C67.1178 98.1122 66.9918 98.1231 67.1598 98.1391Z" fill="#A86BEE"/>
<path fill-rule="evenodd" clip-rule="evenodd" d="M50.0118 29.7931C53.1288 29.8011 58.2308 29.8011 61.3478 29.7931C64.4608 29.7851 61.9138 29.7771 55.6798 29.7771C49.4458 29.7771 46.8948 29.7851 50.0118 29.7931ZM79.5468 35.5631C79.6918 35.7461 79.8198 35.8951 79.8368 35.8951C79.8518 35.8951 79.7418 35.7461 79.5968 35.5631C79.4518 35.3801 79.3238 35.2271 79.3088 35.2271C79.2968 35.2271 79.4018 35.3791 79.5468 35.5631ZM65.1878 38.8201C65.2978 38.8361 65.4778 38.8361 65.5858 38.8201C65.6958 38.8051 65.6058 38.7931 65.3868 38.7931C65.1678 38.7931 65.0748 38.8051 65.1878 38.8201ZM53.2538 48.7701C53.2538 54.2501 53.2578 56.4801 53.2658 53.7301C53.2736 50.4088 53.2736 47.0874 53.2658 43.7661C53.2578 41.0361 53.2538 43.2891 53.2538 48.7701ZM83.1058 47.4301C83.1058 47.5781 83.1178 47.6291 83.1288 47.5471C83.1445 47.4591 83.1445 47.3691 83.1288 47.2811C83.1178 47.2151 83.1058 47.2851 83.1058 47.4301ZM74.2038 48.3671C74.2038 48.6251 74.2148 48.7231 74.2268 48.5821C74.2366 48.4273 74.2366 48.2719 74.2268 48.1171C74.2118 47.9971 74.2038 48.1091 74.2038 48.3671ZM72.1058 55.1211C71.9768 55.2891 71.8828 55.4211 71.8988 55.4211C71.9108 55.4211 72.0318 55.2891 72.1608 55.1211C72.2898 54.9571 72.3828 54.8211 72.3678 54.8211C72.2722 54.9135 72.1845 55.0139 72.1058 55.1211ZM53.2538 78.1611V89.1611L59.5858 89.1641H65.9178L59.5978 89.1441L53.2808 89.1291L53.2658 78.1451L53.2538 67.1611V78.1611ZM65.1598 67.1771C65.2309 67.1914 65.3043 67.19 65.3748 67.1731C65.4248 67.1571 65.3708 67.1461 65.2538 67.1461C65.1368 67.1461 65.0938 67.1571 65.1598 67.1761V67.1771ZM81.4878 92.1901L81.3038 92.4401L81.5068 92.2101C81.6908 91.9951 81.7298 91.9401 81.6908 91.9401C81.6158 92.0172 81.5479 92.1009 81.4878 92.1901Z" fill="#9C3CF4"/>
</g>
<defs>
<clipPath id="clip0">
<rect width="128" height="128" fill="white"/>
</clipPath>
</defs>
</svg>
