<svg width="128" height="128" viewBox="0 0 128 128" fill="none" xmlns="http://www.w3.org/2000/svg">
<path d="M89.7075 48.868L88.9495 48.454C89.3485 49.418 89.4785 50.24 89.4645 50.975C89.6136 50.3701 89.6968 49.7508 89.7125 49.128C89.7241 49.8807 89.6323 50.6313 89.4395 51.359L89.4645 50.974C89.2487 51.8796 88.8859 52.7437 88.3905 53.532L88.6255 53.282C85.7455 58.101 77.8885 59.154 74.0135 54.177C67.7935 46.187 74.1415 37.573 75.0305 29.112C76.1415 18.508 69.4925 8.213 61.2475 2.052C65.7885 9.398 59.8055 19.118 55.0185 24.55C50.3765 29.819 44.7325 34.217 39.6085 39.001C34.1055 44.144 28.8115 49.556 24.2895 55.589C15.2405 67.663 9.69953 82.849 13.7715 97.914C17.8395 112.97 30.8795 122.553 45.6055 125.941C38.1765 122.729 31.2245 114.568 31.2085 106.218C31.1895 97.112 36.9585 89.383 44.1355 84.304C43.2725 87.563 42.8015 90.544 44.9385 93.459C46.9265 96.17 50.4065 97.486 53.6915 96.771C61.3705 95.092 61.7215 86.651 57.1705 81.733C52.6695 76.865 48.3155 71.362 50.0275 64.3C50.8855 60.76 53.0595 57.446 55.8145 55.074C53.6965 60.637 59.7115 66.123 63.6735 68.853C70.5495 73.594 78.0895 77.178 84.4115 82.734C91.0595 88.574 95.9705 96.47 94.9785 105.63C93.9025 115.557 86.0145 122.462 77.1675 125.947C95.8635 121.819 115.186 107.308 115.579 86.571C115.908 69.513 104.206 56.384 89.7075 48.868Z" fill="#EE4323"/>
</svg>
