<svg width="128" height="128" viewBox="0 0 128 128" fill="none" xmlns="http://www.w3.org/2000/svg">
<g clip-path="url(#clip0)">
<path d="M78.4793 46.232L65.6673 58.152L53.7793 34.172L59.9313 20.38C61.5313 17.58 64.0273 17.612 65.5873 20.38L78.4793 46.232Z" fill="#FFA000"/>
<path d="M53.7791 34.1719L65.6671 58.1519L17.7871 102.692L53.7791 34.1719Z" fill="#F57F17"/>
<path d="M92.4911 28.0119C94.7791 25.8119 97.1471 26.5639 97.7511 29.6799L110.215 102.1L68.9031 126.9C67.4631 127.7 63.6231 128.044 63.6231 128.044C63.6231 128.044 60.1271 127.628 58.7951 126.844L17.7871 102.692L92.4911 28.0119Z" fill="#FFCA28"/>
<path d="M53.781 34.1719L17.793 102.692L33.821 2.55192C34.413 -0.568079 36.189 -0.86808 37.773 1.88392L53.781 34.1719Z" fill="#FFA000"/>
</g>
<defs>
<clipPath id="clip0">
<rect width="128" height="128" fill="white"/>
</clipPath>
</defs>
</svg>
