<svg width="128" height="64" viewBox="0 0 128 64" fill="none" xmlns="http://www.w3.org/2000/svg">
<path d="M9.62323 22.6041C9.44637 22.6041 9.26953 22.4272 9.44638 22.2504L10.6843 20.4819C10.8612 20.305 11.038 20.1282 11.3917 20.1282H33.675C33.8519 20.1282 34.0287 20.305 33.8519 20.4819L32.7908 22.0735C32.6139 22.2504 32.437 22.4272 32.0833 22.4272L9.62323 22.6041ZM0.250106 28.2633C0.0732548 28.2633 -0.103597 28.0865 0.0732541 27.9096L1.31121 26.1411C1.48807 25.9643 1.66492 25.7874 2.01862 25.7874H30.4917C30.6685 25.7874 30.8454 25.9643 30.8454 26.1411L30.3148 27.9096C30.3148 28.0865 29.9611 28.2633 29.7843 28.2633H0.250106ZM15.2825 34.0994C15.1056 34.0994 14.9288 33.9226 15.1056 33.7457L15.9899 32.154C16.1667 31.9772 16.3436 31.8003 16.6973 31.8003H29.0769C29.2537 31.8003 29.4306 31.9772 29.4306 32.154L29.2537 33.5689C29.2537 33.7457 29.0769 33.9226 28.9 33.9226L15.2825 34.0994ZM80.0101 21.3661L69.5758 24.0189C68.6916 24.1957 68.5147 24.3726 67.8073 23.3115C66.9231 22.2504 66.2157 21.543 64.8008 21.0124C60.9101 19.067 57.0194 19.5976 53.4824 21.8967C49.2379 24.5494 47.1157 28.617 47.1157 33.7457C47.1157 38.6975 50.6527 42.7651 55.6046 43.4725C59.849 44.0031 63.386 42.5883 66.2157 39.405C66.7462 38.6975 67.2768 37.9901 67.9842 37.1059H55.9583C54.7203 37.1059 54.3666 36.2216 54.7203 35.1605C55.6046 33.2152 57.0194 30.0318 57.9036 28.4402C58.0805 28.0865 58.611 27.3791 59.4953 27.3791H82.1323C81.9554 29.1476 81.9554 30.7392 81.7786 32.5077C81.0712 36.929 79.4795 41.1735 76.6499 44.7105C72.2286 50.5466 66.3925 54.2605 58.9648 55.3216C52.775 56.2058 47.1157 54.9679 42.1639 51.254C37.5657 47.717 34.913 43.1188 34.2056 37.4596C33.3213 30.7392 35.4435 24.5494 39.5111 19.2439C43.9324 13.4078 49.7685 9.69393 57.0194 8.45597C62.8555 7.39486 68.5147 8.10226 73.4666 11.4624C76.8267 13.5847 79.1258 16.5911 80.7175 20.305C80.8943 21.0124 80.7175 21.1893 80.0101 21.3661Z" fill="#00ACD7"/>
<path d="M100.525 55.8519C94.8658 55.6751 89.7371 54.0834 85.3158 50.3696C81.6019 47.1862 79.3028 43.1186 78.5954 38.3437C77.5343 31.2696 79.4797 25.0798 83.7241 19.5974C88.3223 13.5845 93.8047 10.578 101.232 9.16319C107.599 8.10209 113.612 8.63264 118.918 12.3465C123.869 15.7067 126.876 20.3048 127.76 26.3178C128.821 34.8066 126.345 41.527 120.686 47.3631C116.618 51.6075 111.49 54.0834 105.831 55.3214C103.885 55.6751 102.117 55.6751 100.525 55.8519ZM115.381 30.7391C115.381 29.8548 115.381 29.3242 115.204 28.6168C114.143 22.427 108.483 18.89 102.47 20.3048C96.6343 21.5428 92.9204 25.2567 91.5056 31.0928C90.4445 35.8677 92.7436 40.8196 97.1648 42.9418C100.525 44.3566 104.062 44.1798 107.245 42.5881C112.374 40.1122 115.027 36.0446 115.381 30.7391Z" fill="#00ACD7"/>
</svg>
