<svg width="128" height="118" viewBox="0 0 128 118" fill="none" xmlns="http://www.w3.org/2000/svg">
<path d="M64.1719 0C28.7906 0 0 28.7906 0 64.1719C0 86.7188 11.7938 106.491 29.1375 117.938C30.1781 117.244 31.2188 116.55 32.2594 115.856C32.9531 115.509 33.9938 114.816 34.6875 114.469C35.7281 114.122 36.7688 113.428 37.4625 113.081C38.5031 112.734 39.5438 112.388 40.5844 111.694C41.2781 111.347 42.3188 111 43.0125 110.653C44.0531 110.306 45.4406 109.959 46.4813 109.613C47.5219 109.266 48.2156 109.266 49.2563 108.919C50.2969 108.572 50.9906 108.572 52.0313 108.225C53.0719 107.878 54.1125 107.878 55.1531 107.878C56.1938 107.878 57.5813 107.531 58.6219 107.531V103.369V99.9V85.6781V82.2094V69.375H55.1531V62.4375H58.6219H69.0281H72.4969V81.1688V84.9844V99.5531V103.022V108.225C82.2094 109.613 90.8813 113.081 98.8594 117.938C116.55 106.491 127.997 86.7188 127.997 64.1719C128.344 28.7906 99.5531 0 64.1719 0ZM83.25 64.1719C83.25 53.7656 74.5781 45.0938 64.1719 45.0938C53.7656 45.0938 45.0938 53.7656 45.0938 64.1719C45.0938 71.4563 49.2563 78.0469 55.5 81.1688V84.9844C47.5219 81.5156 41.625 73.5375 41.625 64.1719C41.625 51.6844 51.6844 41.625 64.1719 41.625C76.6594 41.625 86.7188 51.6844 86.7188 64.1719C86.7188 72.15 82.5563 79.0875 76.3125 83.25V79.0875C80.475 75.2719 83.25 70.0688 83.25 64.1719ZM76.3125 101.981V98.1656C90.5344 93.3094 100.594 79.7813 100.594 63.825C100.594 44.0531 84.2906 27.75 64.1719 27.75C44.0531 27.75 27.75 44.0531 27.75 64.1719C27.75 81.1688 39.5438 95.7375 55.5 99.5531V103.022C37.8094 99.2063 24.2813 83.25 24.2813 64.1719C24.2813 41.9719 41.9719 24.2813 64.1719 24.2813C86.3719 24.2813 104.063 41.9719 104.063 64.1719C104.063 81.8625 92.2688 97.125 76.3125 101.981Z" fill="#E44A49"/>
</svg>
